<svg
   xmlns:dc="http://purl.org/dc/elements/1.1/"
   xmlns:cc="http://creativecommons.org/ns#"
   xmlns:rdf="http://www.w3.org/1999/02/22-rdf-syntax-ns#"
   xmlns:svg="http://www.w3.org/2000/svg"
   xmlns="http://www.w3.org/2000/svg"
   xmlns:sodipodi="http://sodipodi.sourceforge.net/DTD/sodipodi-0.dtd"
   xmlns:inkscape="http://www.inkscape.org/namespaces/inkscape"
   width="775.59998"
   height="160.8544"
   id="svg2"
   version="1.1"
   inkscape:version="0.48.5 r10040"
   sodipodi:docname="logo.svg"
   inkscape:export-filename="/Users/gabriel/Dropbox/plans/sensorialtech/sensorialtech.png"
   inkscape:export-xdpi="136.62"
   inkscape:export-ydpi="136.62">
  <defs
     id="defs4" />
  <sodipodi:namedview
     id="base"
     pagecolor="#ffffff"
     bordercolor="#666666"
     borderopacity="1.0"
     inkscape:pageopacity="0.0"
     inkscape:pageshadow="2"
     inkscape:zoom="0.61100637"
     inkscape:cx="3.2580811"
     inkscape:cy="-206.71968"
     inkscape:document-units="px"
     inkscape:current-layer="layer1"
     showgrid="false"
     inkscape:window-width="1437"
     inkscape:window-height="850"
     inkscape:window-x="0"
     inkscape:window-y="1"
     inkscape:window-maximized="0"
     fit-margin-top="0"
     fit-margin-left="0"
     fit-margin-right="0"
     fit-margin-bottom="0" />
  <metadata
     id="metadata7">
    <rdf:RDF>
      <cc:Work
         rdf:about="">
        <dc:format>image/svg+xml</dc:format>
        <dc:type
           rdf:resource="http://purl.org/dc/dcmitype/StillImage" />
        <dc:title />
      </cc:Work>
    </rdf:RDF>
  </metadata>
  <g
     inkscape:label="Layer 1"
     inkscape:groupmode="layer"
     id="layer1"
     transform="translate(-23.873904,-127.4266)">
    <path
       style="fill:#ffffff;fill-opacity:1;stroke:#000000"
       d="m 167.60393,247.49441 c -1.98203,3.47026 -6.28848,7.71863 -11.88304,12.14034 l -40.7341,23.7719 c -6.60172,2.69589 -12.41891,4.35555 -16.415269,4.37419 -3.996356,0.0186 -9.828778,-1.58666 -16.455363,-4.22084 L 41.162032,260.16918 c -5.635565,-4.36931 -9.981476,-8.57732 -11.995792,-12.02894 -2.014316,-3.45162 -3.540294,-9.30531 -4.572318,-16.36119 l -0.220018,-47.16272 c 0.966153,-7.06521 2.437447,-12.93287 4.419475,-16.40313 1.982028,-3.47027 6.288485,-7.71865 11.883045,-12.14035 l 40.734098,-23.7719 c 6.601718,-2.69589 12.418912,-4.35555 16.415267,-4.37419 3.996351,-0.0186 9.828781,1.58666 16.455361,4.22084 l 40.95413,23.39083 c 5.63556,4.36931 9.98146,8.57732 11.99579,12.02894 2.01433,3.45162 3.54029,9.30531 4.57232,16.36119 l 0.22002,47.16272 c -0.96616,7.0652 -2.43745,12.93287 -4.41948,16.40313 z"
       id="path3034"
       inkscape:connector-curvature="0"
       sodipodi:nodetypes="sccsccsccsccsccsccs" />
    <path
       sodipodi:type="arc"
       style="fill:#31577e;fill-opacity:1;stroke:none"
       id="path2985-0"
       sodipodi:cx="98.994949"
       sodipodi:cy="211.91527"
       sodipodi:rx="20.203051"
       sodipodi:ry="20.203051"
       d="m 119.198,211.91527 c 0,11.15783 -9.04521,20.20305 -20.203051,20.20305 -11.157836,0 -20.20305,-9.04522 -20.20305,-20.20305 0,-11.15784 9.045214,-20.20305 20.20305,-20.20305 11.157841,0 20.203051,9.04521 20.203051,20.20305 z"
       transform="matrix(2.9442341,0,0,-2.9442341,-193.26565,831.78196)" />
    <path
       sodipodi:type="arc"
       style="fill:#feb32c;fill-opacity:1;stroke:none"
       id="path2985-4"
       sodipodi:cx="98.994949"
       sodipodi:cy="211.91527"
       sodipodi:rx="20.203051"
       sodipodi:ry="20.203051"
       d="m 119.198,211.91527 c 0,11.15783 -9.04521,20.20305 -20.203051,20.20305 -11.157836,0 -20.20305,-9.04522 -20.20305,-20.20305 0,-11.15784 9.045214,-20.20305 20.20305,-20.20305 11.157841,0 20.203051,9.04521 20.203051,20.20305 z"
       transform="matrix(1.9316122,0,0,-1.9316122,-93.021197,617.19192)" />
    <path
       sodipodi:type="arc"
       style="fill:#31577e;fill-opacity:1;stroke:none"
       id="path2985"
       sodipodi:cx="98.994949"
       sodipodi:cy="211.91527"
       sodipodi:rx="20.203051"
       sodipodi:ry="20.203051"
       d="m 119.198,211.91527 c 0,11.15783 -9.04521,20.20305 -20.203051,20.20305 -11.157836,0 -20.20305,-9.04522 -20.20305,-20.20305 0,-11.15784 9.045214,-20.20305 20.20305,-20.20305 11.157841,0 20.203051,9.04521 20.203051,20.20305 z"
       transform="matrix(1,0,0,-1,-0.79629454,419.76907)" />
    <g
       style="font-size:120px;font-style:normal;font-variant:normal;font-weight:bold;font-stretch:normal;line-height:125%;letter-spacing:0px;word-spacing:0px;fill:#feb32c;fill-opacity:1;stroke:none;font-family:PT Sans;-inkscape-font-specification:PT Sans Bold"
       id="text3036">
      <path
         d="m 284.02669,227.29381 c -5e-5,-2.55998 -0.96005,-4.63998 -2.88,-6.24 -1.84004,-1.59997 -4.20004,-3.03997 -7.08,-4.32 -2.80004,-1.35997 -5.88003,-2.71997 -9.24,-4.08 -3.28003,-1.43997 -6.36002,-3.15996 -9.24,-5.16 -2.80002,-2.07996 -5.16001,-4.63996 -7.08,-7.68 -1.84001,-3.03995 -2.76001,-6.91995 -2.76,-11.64 -1e-5,-4.07994 0.67999,-7.59994 2.04,-10.56 1.35999,-3.03993 3.27998,-5.55993 5.76,-7.56 2.55998,-1.99992 5.55998,-3.47992 9,-4.44 3.43997,-0.95992 7.27997,-1.43992 11.52,-1.44 4.87996,8e-5 9.47995,0.44008 13.8,1.32 4.31994,0.80008 7.87994,2.00008 10.68,3.6 l -5.16,13.8 c -1.76006,-1.11994 -4.40005,-2.11994 -7.92,-3 -3.52005,-0.95993 -7.32004,-1.43993 -11.4,-1.44 -3.84003,7e-5 -6.80003,0.76007 -8.88,2.28 -2.00003,1.52006 -3.00003,3.56006 -3,6.12 -3e-5,2.40006 0.91997,4.40005 2.76,6 1.91997,1.60005 4.27997,3.08005 7.08,4.44 2.87996,1.36005 5.95996,2.76005 9.24,4.2 3.35995,1.44004 6.43995,3.20004 9.24,5.28 2.87994,2.00004 5.23994,4.52003 7.08,7.56 1.91994,2.96003 2.87994,6.68002 2.88,11.16 -6e-5,4.48002 -0.76006,8.36001 -2.28,11.64 -1.44006,3.20001 -3.52006,5.88 -6.24,8.04 -2.64005,2.16 -5.88005,3.76 -9.72,4.8 -3.76004,1.03999 -7.92004,1.55999 -12.48,1.56 -6.00003,-10e-6 -11.28002,-0.56001 -15.84,-1.68 -4.56001,-1.12 -7.92001,-2.24 -10.08,-3.36 l 5.28,-14.04 c 0.87999,0.48001 1.99998,1.00001 3.36,1.56 1.43998,0.56001 3.03998,1.08001 4.8,1.56 1.75998,0.48001 3.59997,0.88001 5.52,1.2 1.99997,0.32001 4.03997,0.48001 6.12,0.48 4.87996,1e-5 8.59996,-0.79999 11.16,-2.4 2.63995,-1.67999 3.95995,-4.19999 3.96,-7.56"
         style=""
         id="path3241" />
      <path
         d="m 358.94231,244.69381 c -2.40005,1.92 -5.68005,3.56 -9.84,4.92 -4.08004,1.27999 -8.44004,1.91999 -13.08,1.92 -9.68002,-10e-6 -16.76001,-2.8 -21.24,-8.4 -4.48001,-5.67999 -6.72,-13.43998 -6.72,-23.28 0,-10.55996 2.51999,-18.47996 7.56,-23.76 5.03998,-5.27995 12.11998,-7.91994 21.24,-7.92 3.03996,6e-5 5.99996,0.40006 8.88,1.2 2.87996,0.80006 5.43995,2.12005 7.68,3.96 2.23995,1.84005 4.03995,4.32005 5.4,7.44 1.35994,3.12004 2.03994,7.00004 2.04,11.64 -6e-5,1.68003 -0.12006,3.48003 -0.36,5.4 -0.16006,1.92003 -0.44006,3.92002 -0.84,6 l -36,0 c 0.23998,5.04002 1.51998,8.84001 3.84,11.4 2.39997,2.56001 6.23997,3.84001 11.52,3.84 3.27996,1e-5 6.19996,-0.47999 8.76,-1.44 2.63995,-1.03999 4.63995,-2.07999 6,-3.12 l 5.16,10.2 m -22.32,-44.04 c -4.08003,4e-5 -7.12003,1.24004 -9.12,3.72 -1.92002,2.40004 -3.08002,5.64004 -3.48,9.72 l 22.32,0 c 0.31996,-4.31996 -0.36004,-7.63996 -2.04,-9.96 -1.60004,-2.31996 -4.16004,-3.47996 -7.68,-3.48"
         style=""
         id="path3243" />
      <path
         d="m 408.59981,249.85381 0,-34.08 c -4e-5,-4.87997 -0.72004,-8.39996 -2.16,-10.56 -1.36004,-2.15996 -3.72004,-3.23996 -7.08,-3.24 -2.96003,4e-5 -5.48003,0.88004 -7.56,2.64 -2.00002,1.68004 -3.44002,3.80004 -4.32,6.36 l 0,38.88 -15.6,0 0,-60 12.36,0 1.8,7.92 0.48,0 c 1.83998,-2.55995 4.27997,-4.79995 7.32,-6.72 3.03997,-1.91994 6.95996,-2.87994 11.76,-2.88 2.95996,6e-5 5.59995,0.40006 7.92,1.2 2.31995,0.80006 4.27995,2.12005 5.88,3.96 1.59994,1.84005 2.79994,4.36005 3.6,7.56 0.79994,3.12004 1.19994,7.00004 1.2,11.64 l 0,37.32 -15.6,0"
         style=""
         id="path3245" />
      <path
         d="m 462.11044,233.29381 c -4e-5,-1.59999 -0.68004,-2.87999 -2.04,-3.84 -1.36003,-0.95998 -3.04003,-1.83998 -5.04,-2.64 -2.00003,-0.79998 -4.20003,-1.59998 -6.6,-2.4 -2.40002,-0.87998 -4.60002,-2.03998 -6.6,-3.48 -2.00001,-1.51997 -3.68001,-3.39997 -5.04,-5.64 -1.36001,-2.31997 -2.04001,-5.27996 -2.04,-8.88 -1e-5,-5.91996 1.75999,-10.43995 5.28,-13.56 3.51998,-3.11994 8.59998,-4.67994 15.24,-4.68 4.55997,6e-5 8.67996,0.48006 12.36,1.44 3.67995,0.96005 6.55995,2.04005 8.64,3.24 l -3.48,11.28 c -1.84005,-0.71996 -4.16004,-1.47996 -6.96,-2.28 -2.80004,-0.79996 -5.64003,-1.19996 -8.52,-1.2 -4.64003,4e-5 -6.96002,1.80004 -6.96,5.4 -2e-5,1.44004 0.67997,2.60004 2.04,3.48 1.35997,0.88003 3.03997,1.72003 5.04,2.52 1.99997,0.72003 4.19996,1.52003 6.6,2.4 2.39996,0.88003 4.59996,2.04003 6.6,3.48 1.99995,1.36003 3.67995,3.16002 5.04,5.4 1.35995,2.24002 2.03995,5.12002 2.04,8.64 -5e-5,6.08001 -1.96005,10.88 -5.88,14.4 -3.84004,3.44 -9.64004,5.15999 -17.4,5.16 -4.24002,-10e-6 -8.24002,-0.56001 -12,-1.68 -3.68001,-1.04 -6.68001,-2.28 -9,-3.72 l 4.32,-11.64 c 1.83999,1.04001 4.27998,2.08001 7.32,3.12 3.03998,0.96001 6.15997,1.44001 9.36,1.44 2.31997,1e-5 4.15997,-0.43999 5.52,-1.32 1.43996,-0.87999 2.15996,-2.35999 2.16,-4.44"
         style=""
         id="path3247" />
      <path
         d="m 485.01544,219.85381 c -1e-5,-10.15996 2.47999,-17.95996 7.44,-23.4 4.95998,-5.51995 11.91997,-8.27994 20.88,-8.28 4.79996,6e-5 8.95995,0.76006 12.48,2.28 3.51995,1.52005 6.43994,3.68005 8.76,6.48 2.31994,2.72005 4.03994,6.04004 5.16,9.96 1.19994,3.92003 1.79993,8.24003 1.8,12.96 -7e-5,10.16002 -2.48006,18.00001 -7.44,23.52 -4.88005,5.44 -11.80005,8.15999 -20.76,8.16 -4.80003,-10e-6 -8.96003,-0.76001 -12.48,-2.28 -3.52002,-1.52 -6.48002,-3.64 -8.88,-6.36 -2.32001,-2.79999 -4.08001,-6.15999 -5.28,-10.08 -1.12001,-3.91998 -1.68001,-8.23998 -1.68,-12.96 m 16.08,0 c -2e-5,2.64002 0.23997,5.08002 0.72,7.32 0.47997,2.24002 1.19997,4.20001 2.16,5.88 0.95997,1.68001 2.19997,3.00001 3.72,3.96 1.59997,0.88001 3.47997,1.32001 5.64,1.32 4.07996,1e-5 7.11996,-1.47999 9.12,-4.44 1.99995,-2.95999 2.99995,-7.63998 3,-14.04 -5e-5,-5.51997 -0.92005,-9.95996 -2.76,-13.32 -1.84004,-3.43996 -4.96004,-5.15996 -9.36,-5.16 -3.84003,4e-5 -6.84003,1.44004 -9,4.32 -2.16003,2.88004 -3.24002,7.60003 -3.24,14.16"
         style=""
         id="path3249" />
      <path
         d="m 585.46856,204.49381 c -2.48004,-0.87996 -4.72004,-1.31996 -6.72,-1.32 -2.80003,4e-5 -5.16003,0.76004 -7.08,2.28 -1.84002,1.44004 -3.08002,3.32004 -3.72,5.64 l 0,38.76 -15.6,0 0,-60 12.12,0 1.8,7.92 0.48,0 c 1.35998,-2.95995 3.19998,-5.23995 5.52,-6.84 2.31997,-1.59994 5.03997,-2.39994 8.16,-2.4 2.07996,6e-5 4.43996,0.44006 7.08,1.32 l -2.04,14.64"
         style=""
         id="path3251" />
      <path
         d="m 595.85606,189.85381 15.6,0 0,60 -15.6,0 0,-60 m -2.28,-16.92 c -10e-6,-2.31993 0.83999,-4.27992 2.52,-5.88 1.75999,-1.67992 4.15999,-2.51992 7.2,-2.52 3.03998,8e-5 5.47998,0.84008 7.32,2.52 1.91998,1.60008 2.87997,3.56007 2.88,5.88 -3e-5,2.32007 -0.96002,4.28007 -2.88,5.88 -1.84002,1.52007 -4.28002,2.28006 -7.32,2.28 -3.04001,6e-5 -5.44001,-0.75993 -7.2,-2.28 -1.68001,-1.59993 -2.52001,-3.55993 -2.52,-5.88"
         style=""
         id="path3253" />
      <path
         d="m 626.51981,193.33381 c 3.19999,-1.43995 6.99999,-2.55995 11.4,-3.36 4.39998,-0.87994 8.99997,-1.31994 13.8,-1.32 4.15996,6e-5 7.63996,0.52006 10.44,1.56 2.79996,0.96005 4.99995,2.36005 6.6,4.2 1.67995,1.84005 2.83995,4.04005 3.48,6.6 0.71995,2.56004 1.07995,5.44004 1.08,8.64 -5e-5,3.52003 -0.12005,7.08003 -0.36,10.68 -0.24005,3.52002 -0.40005,7.00002 -0.48,10.44 -5e-5,3.44001 0.11995,6.80001 0.36,10.08 0.23995,3.2 0.83995,6.24 1.8,9.12 l -12.72,0 -2.52,-8.28 -0.6,0 c -1.60004,2.48 -3.84003,4.64 -6.72,6.48 -2.80003,1.76 -6.44003,2.63999 -10.92,2.64 -2.80002,-1e-5 -5.32002,-0.40001 -7.56,-1.2 -2.24001,-0.88 -4.16001,-2.08 -5.76,-3.6 -1.60001,-1.6 -2.84,-3.44 -3.72,-5.52 -0.88,-2.15999 -1.32,-4.55999 -1.32,-7.2 0,-3.67998 0.8,-6.75998 2.4,-9.24 1.67999,-2.55998 4.03999,-4.59997 7.08,-6.12 3.11998,-1.59997 6.79998,-2.67997 11.04,-3.24 4.31997,-0.63997 9.11997,-0.83997 14.4,-0.6 0.55996,-4.47996 0.23996,-7.67996 -0.96,-9.6 -1.20004,-1.99996 -3.88003,-2.99996 -8.04,-3 -3.12003,4e-5 -6.44002,0.32004 -9.96,0.96 -3.44002,0.64004 -6.28001,1.48004 -8.52,2.52 l -3.72,-11.64 m 19.8,44.64 c 3.11997,1e-5 5.59997,-0.67999 7.44,-2.04 1.83996,-1.43999 3.19996,-2.95999 4.08,-4.56 l 0,-7.8 c -2.48004,-0.23998 -4.88003,-0.27998 -7.2,-0.12 -2.24003,0.16002 -4.24003,0.52002 -6,1.08 -1.76002,0.56002 -3.16002,1.36002 -4.2,2.4 -1.04002,1.04002 -1.56002,2.36002 -1.56,3.96 -2e-5,2.24001 0.63998,4.00001 1.92,5.28 1.35998,1.20001 3.19998,1.80001 5.52,1.8"
         style=""
         id="path3255" />
      <path
         d="m 702.49106,229.69381 c -2e-5,2.80001 0.35998,4.84001 1.08,6.12 0.71998,1.28001 1.87997,1.92001 3.48,1.92 0.95997,1e-5 1.87997,-0.08 2.76,-0.24 0.95997,-0.15999 2.11997,-0.51999 3.48,-1.08 l 1.68,12.24 c -1.28003,0.64 -3.24003,1.28 -5.88,1.92 -2.64003,0.63999 -5.36002,0.95999 -8.16,0.96 -4.56002,-10e-6 -8.04001,-1.04001 -10.44,-3.12 -2.40001,-2.16 -3.60001,-5.68 -3.6,-10.56 l 0,-72 15.6,0 0,63.84"
         style=""
         id="path3257" />
    </g>
    <text
       xml:space="preserve"
       style="font-size:40px;font-style:normal;font-variant:normal;font-weight:normal;font-stretch:normal;line-height:125%;letter-spacing:0px;word-spacing:0px;fill:#ffffff;fill-opacity:1;stroke:none;font-family:PT Sans;-inkscape-font-specification:PT Sans"
       x="538.16168"
       y="279.23642"
       id="text3040"
       sodipodi:linespacing="125%"><tspan
         sodipodi:role="line"
         id="tspan3042"
         x="538.16168"
         y="279.23642">tecnologia</tspan></text>
  </g>
</svg>
