<svg
   xmlns:dc="http://purl.org/dc/elements/1.1/"
   xmlns:cc="http://creativecommons.org/ns#"
   xmlns:rdf="http://www.w3.org/1999/02/22-rdf-syntax-ns#"
   xmlns:svg="http://www.w3.org/2000/svg"
   xmlns="http://www.w3.org/2000/svg"
   xmlns:sodipodi="http://sodipodi.sourceforge.net/DTD/sodipodi-0.dtd"
   xmlns:inkscape="http://www.inkscape.org/namespaces/inkscape"
   width="775.59998"
   height="160.8544"
   id="svg2"
   version="1.1"
   inkscape:version="0.48.5 r10040"
   sodipodi:docname="logo-changed.svg"
   inkscape:export-filename="/Users/gabriel/Dropbox/plans/sensorialtech/sensorialtech.png"
   inkscape:export-xdpi="136.62"
   inkscape:export-ydpi="136.62">
  <defs
     id="defs4" />
  <sodipodi:namedview
     id="base"
     pagecolor="#ffffff"
     bordercolor="#666666"
     borderopacity="1.0"
     inkscape:pageopacity="0.0"
     inkscape:pageshadow="2"
     inkscape:zoom="0.61100637"
     inkscape:cx="3.2580811"
     inkscape:cy="-206.71968"
     inkscape:document-units="px"
     inkscape:current-layer="layer1"
     showgrid="false"
     inkscape:window-width="1437"
     inkscape:window-height="850"
     inkscape:window-x="0"
     inkscape:window-y="1"
     inkscape:window-maximized="0"
     fit-margin-top="0"
     fit-margin-left="0"
     fit-margin-right="0"
     fit-margin-bottom="0" />
  <metadata
     id="metadata7">
    <rdf:RDF>
      <cc:Work
         rdf:about="">
        <dc:format>image/svg+xml</dc:format>
        <dc:type
           rdf:resource="http://purl.org/dc/dcmitype/StillImage" />
        <dc:title />
      </cc:Work>
    </rdf:RDF>
  </metadata>
  <g
     inkscape:label="Layer 1"
     inkscape:groupmode="layer"
     id="layer1"
     transform="translate(-23.873904,-127.4266)">
    <path
       style="fill:#ffffff;fill-opacity:1;stroke:#000000"
       d="m 167.60393,247.49441 c -1.98203,3.47026 -6.28848,7.71863 -11.88304,12.14034 l -40.7341,23.7719 c -6.60172,2.69589 -12.41891,4.35555 -16.415269,4.37419 -3.996356,0.0186 -9.828778,-1.58666 -16.455363,-4.22084 L 41.162032,260.16918 c -5.635565,-4.36931 -9.981476,-8.57732 -11.995792,-12.02894 -2.014316,-3.45162 -3.540294,-9.30531 -4.572318,-16.36119 l -0.220018,-47.16272 c 0.966153,-7.06521 2.437447,-12.93287 4.419475,-16.40313 1.982028,-3.47027 6.288485,-7.71865 11.883045,-12.14035 l 40.734098,-23.7719 c 6.601718,-2.69589 12.418912,-4.35555 16.415267,-4.37419 3.996351,-0.0186 9.828781,1.58666 16.455361,4.22084 l 40.95413,23.39083 c 5.63556,4.36931 9.98146,8.57732 11.99579,12.02894 2.01433,3.45162 3.54029,9.30531 4.57232,16.36119 l 0.22002,47.16272 c -0.96616,7.0652 -2.43745,12.93287 -4.41948,16.40313 z"
       id="path3034"
       inkscape:connector-curvature="0"
       sodipodi:nodetypes="sccsccsccsccsccsccs" />
    <path
       sodipodi:type="arc"
       style="fill:#31577e;fill-opacity:1;stroke:none"
       id="path2985-0"
       sodipodi:cx="98.994949"
       sodipodi:cy="211.91527"
       sodipodi:rx="20.203051"
       sodipodi:ry="20.203051"
       d="m 119.198,211.91527 c 0,11.15783 -9.04521,20.20305 -20.203051,20.20305 -11.157836,0 -20.20305,-9.04522 -20.20305,-20.20305 0,-11.15784 9.045214,-20.20305 20.20305,-20.20305 11.157841,0 20.203051,9.04521 20.203051,20.20305 z"
       transform="matrix(2.9442341,0,0,-2.9442341,-193.26565,831.78196)" />
    <path
       sodipodi:type="arc"
       style="fill:#feb32c;fill-opacity:1;stroke:none"
       id="path2985-4"
       sodipodi:cx="98.994949"
       sodipodi:cy="211.91527"
       sodipodi:rx="20.203051"
       sodipodi:ry="20.203051"
       d="m 119.198,211.91527 c 0,11.15783 -9.04521,20.20305 -20.203051,20.20305 -11.157836,0 -20.20305,-9.04522 -20.20305,-20.20305 0,-11.15784 9.045214,-20.20305 20.20305,-20.20305 11.157841,0 20.203051,9.04521 20.203051,20.20305 z"
       transform="matrix(1.9316122,0,0,-1.9316122,-93.021197,617.19192)" />
    <path
       sodipodi:type="arc"
       style="fill:#31577e;fill-opacity:1;stroke:none"
       id="path2985"
       sodipodi:cx="98.994949"
       sodipodi:cy="211.91527"
       sodipodi:rx="20.203051"
       sodipodi:ry="20.203051"
       d="m 119.198,211.91527 c 0,11.15783 -9.04521,20.20305 -20.203051,20.20305 -11.157836,0 -20.20305,-9.04522 -20.20305,-20.20305 0,-11.15784 9.045214,-20.20305 20.20305,-20.20305 11.157841,0 20.203051,9.04521 20.203051,20.20305 z"
       transform="matrix(1,0,0,-1,-0.79629454,419.76907)" />
    <text
       xml:space="preserve"
       style="font-size:120px;font-style:normal;font-variant:normal;font-weight:bold;font-stretch:normal;line-height:125%;letter-spacing:0px;word-spacing:0px;fill:#feb32c;fill-opacity:1;stroke:none;font-family:PT Sans;-inkscape-font-specification:PT Sans Bold"
       x="240.58669"
       y="249.85381"
       id="text3036"
       sodipodi:linespacing="125%"><tspan
         sodipodi:role="line"
         id="tspan3038"
         x="240.58669"
         y="249.85381">Sensorial</tspan></text>
    <text
       xml:space="preserve"
       style="font-size:40px;font-style:normal;font-variant:normal;font-weight:normal;font-stretch:normal;line-height:125%;letter-spacing:0px;word-spacing:0px;fill:#ffffff;fill-opacity:1;stroke:none;font-family:PT Sans;-inkscape-font-specification:PT Sans"
       x="538.16168"
       y="279.23642"
       id="text3040"
       sodipodi:linespacing="125%"><tspan
         sodipodi:role="line"
         id="tspan3042"
         x="538.16168"
         y="279.23642">tecnologia</tspan></text>
  </g>
</svg>
